<?xml version="1.0" standalone="no"?>
<!DOCTYPE svg PUBLIC "-//W3C//DTD SVG 20010904//EN"
 "http://www.w3.org/TR/2001/REC-SVG-20010904/DTD/svg10.dtd">
<svg version="1.0" xmlns="http://www.w3.org/2000/svg"
 width="3141.000000pt" height="1051.000000pt" viewBox="0 0 3141.000000 1051.000000"
 preserveAspectRatio="xMidYMid meet">

<g transform="translate(0.000000,1051.000000) scale(0.100000,-0.100000)"
fill="#000000" stroke="none">
<path d="M3200 9295 l0 -1185 -1585 0 -1585 0 0 -595 0 -595 1585 0 1585 0 0
-3265 0 -3265 595 0 595 0 0 3265 0 3265 1665 0 1665 0 0 595 0 595 -1665 0
-1665 0 0 1185 0 1185 -595 0 -595 0 0 -1185z"/>
<path d="M18236 8509 c-443 -43 -852 -178 -1166 -386 -207 -138 -419 -373
-524 -581 -51 -101 -101 -257 -122 -377 -23 -136 -23 -396 0 -524 98 -536 468
-950 1139 -1271 207 -99 485 -207 824 -319 535 -177 772 -289 914 -430 122
-122 168 -236 176 -431 9 -211 -35 -330 -172 -467 -97 -96 -196 -149 -350
-188 -262 -67 -674 -53 -932 31 -373 120 -573 384 -600 792 l-6 92 -599 0
-600 0 7 -92 c9 -140 33 -298 60 -403 72 -274 215 -517 439 -741 307 -306 699
-504 1196 -604 244 -49 416 -63 730 -57 387 7 614 42 902 137 445 148 794 423
967 761 215 422 212 988 -7 1425 -157 314 -396 545 -785 763 -286 161 -561
271 -1117 449 -640 205 -944 416 -1010 701 -19 80 -8 220 24 304 82 217 299
385 571 442 279 58 629 32 836 -63 187 -84 339 -243 400 -419 28 -80 49 -193
49 -264 l0 -59 601 0 602 0 -8 103 c-16 232 -68 442 -159 632 -58 122 -188
312 -280 412 -322 346 -811 567 -1384 628 -148 16 -470 18 -616 4z"/>
<path d="M28725 8505 c-440 -50 -800 -190 -1130 -437 -299 -225 -517 -501
-685 -868 -219 -478 -300 -929 -300 -1670 0 -409 23 -674 81 -964 57 -281 128
-494 244 -731 343 -701 943 -1132 1749 -1257 169 -26 580 -36 793 -19 596 48
1085 197 1473 448 120 79 201 143 313 252 l97 95 0 1163 0 1163 -1145 0 -1145
0 0 -435 0 -435 545 0 545 0 0 -508 0 -508 -32 -31 c-127 -118 -362 -210 -623
-244 -152 -19 -458 -17 -580 5 -645 116 -1009 621 -1085 1501 -13 155 -13 824
0 991 38 484 137 822 315 1074 228 324 514 464 945 463 400 0 664 -108 855
-348 98 -124 188 -337 225 -537 l12 -68 584 0 584 0 -4 23 c-3 12 -13 72 -21
132 -77 517 -313 971 -652 1255 -324 271 -690 421 -1187 486 -168 22 -613 27
-771 9z"/>
<path d="M9300 5535 l0 -2905 600 0 600 0 0 756 0 756 -60 1372 c-34 754 -59
1384 -58 1401 2 20 258 -677 779 -2125 l776 -2155 415 -3 416 -2 34 92 c18 51
371 1023 783 2160 413 1138 751 2064 753 2060 1 -5 -25 -625 -58 -1379 l-60
-1371 0 -781 0 -781 600 0 600 0 0 2905 0 2905 -791 -2 -791 -3 -735 -2095
c-404 -1152 -738 -2098 -741 -2102 -4 -4 -329 902 -721 2015 -393 1112 -728
2059 -744 2105 l-30 82 -783 0 -784 0 0 -2905z"/>
<path d="M21490 5535 l0 -2905 595 0 595 0 2 1023 3 1022 705 6 c747 6 777 8
1040 60 626 125 1114 475 1340 964 52 111 105 282 131 416 30 161 38 505 15
674 -58 421 -224 770 -495 1042 -302 304 -696 490 -1221 575 -133 22 -152 22
-1422 25 l-1288 4 0 -2906z m2419 1925 c449 -46 755 -347 810 -795 62 -506
-157 -871 -589 -979 -164 -41 -283 -47 -885 -44 l-560 3 -3 900 c-1 495 0 906
3 913 6 16 1071 17 1224 2z"/>
</g>
</svg>
