<?xml version="1.0" standalone="no"?>
<!DOCTYPE svg PUBLIC "-//W3C//DTD SVG 20010904//EN"
 "http://www.w3.org/TR/2001/REC-SVG-20010904/DTD/svg10.dtd">
<svg version="1.0" xmlns="http://www.w3.org/2000/svg"
 width="4661.000000pt" height="3439.000000pt" viewBox="0 0 4661.000000 3439.000000"
 preserveAspectRatio="xMidYMid meet">

<g transform="translate(0.000000,3439.000000) scale(0.100000,-0.100000)"
fill="#000000" stroke="none">
<path d="M10 17195 l0 -17185 23300 0 23300 0 0 17185 0 17185 -23300 0
-23300 0 0 -17185z m11970 4295 l0 -1190 1670 0 1670 0 -2 -617 -3 -618 -1667
-3 -1668 -2 0 -3260 0 -3260 -620 0 -620 0 0 3260 0 3260 -1582 2 -1583 3 -3
618 -2 617 1585 0 1585 0 0 1190 0 1190 620 0 620 0 0 -1190z m14312 -800
c346 -22 622 -87 909 -215 622 -276 1013 -820 1045 -1457 l7 -128 -599 0 -600
0 -12 117 c-50 470 -383 723 -950 723 -304 0 -502 -55 -679 -189 -143 -108
-220 -236 -244 -403 -23 -164 30 -315 156 -443 166 -169 409 -287 944 -461
453 -147 724 -256 991 -400 545 -291 851 -666 962 -1177 30 -141 33 -489 4
-642 -93 -497 -417 -876 -940 -1099 -528 -226 -1315 -268 -1956 -106 -436 111
-874 365 -1116 648 -268 313 -400 641 -421 1050 l-6 122 600 0 601 0 7 -82
c22 -282 87 -441 239 -593 103 -102 167 -143 299 -193 161 -61 293 -83 532
-89 136 -4 242 -1 300 6 362 48 581 202 661 466 25 81 25 274 1 365 -41 157
-129 276 -273 370 -168 110 -375 197 -829 348 -327 109 -515 180 -729 278
-697 317 -1095 742 -1203 1281 -25 127 -25 431 1 568 48 259 156 473 344 684
398 445 1168 702 1954 651z m10538 0 c199 -12 284 -23 455 -56 597 -118 1062
-426 1340 -889 152 -253 256 -575 301 -932 l7 -53 -587 0 -586 0 -5 28 c-3 15
-18 81 -34 147 -129 531 -470 786 -1052 785 -74 0 -165 -5 -204 -10 -355 -51
-602 -220 -798 -546 -124 -206 -210 -522 -247 -904 -30 -311 -22 -986 15
-1248 111 -782 482 -1227 1096 -1318 139 -20 472 -15 614 10 209 36 409 116
528 211 l57 47 0 504 0 504 -545 0 -545 0 0 445 0 445 1145 0 1145 0 0 -1167
0 -1166 -26 -34 c-77 -102 -350 -310 -545 -416 -326 -178 -730 -293 -1199
-341 -957 -100 -1705 122 -2232 660 -121 124 -180 197 -280 349 -228 346 -367
752 -440 1285 -21 153 -23 202 -23 670 0 535 5 617 51 887 53 313 134 563 274
848 128 261 247 432 428 611 223 222 521 411 802 509 332 115 685 159 1090
135z m-18379 -107 c8 -21 343 -968 744 -2105 402 -1136 732 -2064 735 -2062 3
3 336 949 741 2102 l736 2097 791 3 792 2 0 -2915 0 -2915 -600 0 -600 0 0
838 0 837 55 1260 c31 693 55 1281 53 1308 -3 42 -87 -184 -772 -2075 -423
-1168 -774 -2133 -779 -2146 l-10 -22 -415 2 -416 3 -775 2152 c-426 1184
-776 2151 -777 2150 -1 -1 24 -600 57 -1332 l58 -1330 1 -822 0 -823 -600 0
-600 0 0 2915 0 2915 783 0 784 0 14 -37z m13244 14 c419 -57 730 -167 1017
-357 367 -243 616 -592 728 -1022 142 -544 61 -1141 -209 -1545 -273 -409
-714 -673 -1296 -778 -249 -44 -313 -47 -1007 -52 l-668 -5 0 -1024 0 -1024
-602 2 -603 3 -3 2900 c-1 1595 0 2906 3 2913 4 11 232 12 1262 9 1094 -3
1274 -6 1378 -20z m2922 -6464 c100 -47 108 -187 14 -245 -28 -18 -51 -23
-106 -23 -88 0 -135 25 -160 87 -55 139 102 252 252 181z m2253 -673 c0 -687
0 -700 20 -720 14 -14 33 -20 65 -20 l45 0 0 -48 0 -49 -117 -7 c-65 -3 -149
-13 -188 -21 -38 -8 -73 -15 -77 -15 -5 0 -8 53 -8 117 l0 118 -34 -50 c-74
-110 -163 -165 -282 -173 -204 -13 -368 120 -430 348 -13 48 -18 101 -18 205
1 124 4 149 28 222 46 141 122 234 236 291 50 24 66 27 165 27 100 0 115 -2
161 -27 29 -15 68 -46 88 -70 l37 -43 -3 212 c-3 204 -4 213 -25 235 -18 17
-37 23 -88 26 l-65 4 0 43 0 43 63 6 c205 17 327 29 362 36 22 4 46 8 53 9 9
1 12 -145 12 -699z m-6309 602 c169 -56 197 -55 219 13 11 34 13 35 66 35 l54
0 0 -250 0 -250 -48 0 -48 0 -28 68 c-38 92 -77 150 -141 211 -84 79 -129 96
-255 96 -98 0 -109 -2 -159 -30 -92 -51 -146 -134 -184 -282 -20 -80 -22 -111
-22 -348 1 -206 4 -275 17 -333 34 -148 96 -241 187 -280 22 -9 67 -15 116
-16 66 0 90 4 136 26 102 47 139 124 146 303 4 106 2 124 -15 151 -20 31 -73
54 -126 54 -25 0 -26 3 -26 50 l0 50 340 0 340 0 0 -49 0 -48 -44 -6 c-24 -4
-54 -11 -68 -17 -51 -24 -53 -34 -56 -337 l-3 -283 -60 0 c-45 0 -59 3 -59 15
0 31 -43 126 -61 136 -17 9 -36 1 -114 -46 -125 -76 -192 -96 -336 -102 -210
-9 -357 45 -494 182 -87 87 -134 159 -172 263 -88 238 -64 541 58 749 19 32
68 92 109 134 59 59 95 85 160 117 126 62 174 72 320 69 115 -4 135 -7 251
-45z m-12691 8 c238 -25 377 -96 440 -225 21 -44 24 -64 25 -160 0 -98 -3
-116 -26 -165 -52 -111 -135 -172 -286 -210 -85 -22 -288 -40 -456 -40 l-108
0 3 -227 c2 -168 7 -235 17 -255 16 -31 66 -54 140 -64 l51 -7 0 -48 0 -49
-370 0 -370 0 0 50 c0 42 3 50 18 50 10 0 42 7 70 15 87 26 83 -6 80 624 l-3
549 -24 26 c-16 17 -43 29 -83 37 l-58 12 0 48 0 49 423 0 c232 0 465 -5 517
-10z m1810 -497 l0 -118 38 60 c72 112 145 158 252 158 99 1 162 -37 195 -116
20 -49 19 -93 -5 -145 -32 -71 -130 -102 -206 -66 -51 24 -66 60 -58 139 l7
65 -29 0 c-43 0 -71 -24 -105 -92 -50 -99 -59 -164 -59 -441 l0 -249 29 -29
c24 -24 38 -29 75 -29 l46 0 0 -45 0 -45 -280 0 -280 0 0 44 c0 42 2 45 36 56
62 21 64 33 64 432 0 262 -4 359 -13 378 -9 18 -25 28 -55 34 -41 10 -42 11
-42 52 l0 42 63 6 c178 17 256 23 290 25 l37 1 0 -117z m2115 102 c84 -22 141
-53 181 -98 79 -87 94 -176 94 -553 0 -298 0 -297 70 -274 45 15 70 8 70 -18
0 -52 -106 -121 -199 -129 -97 -9 -164 24 -203 100 -11 23 -22 43 -23 45 -1 2
-37 -22 -79 -52 -109 -78 -170 -100 -281 -100 -100 -1 -145 16 -204 75 -55 55
-66 85 -66 184 0 73 4 98 22 131 62 116 232 197 479 226 l106 13 -4 135 c-4
151 -15 186 -70 220 -60 36 -164 37 -209 2 l-20 -17 31 -61 c26 -51 30 -67 24
-100 -24 -134 -247 -154 -300 -28 -52 125 51 253 241 300 73 18 268 17 340 -1z
m4011 1 c192 -51 316 -215 340 -448 l6 -68 -315 0 -314 0 -6 -30 c-10 -49 10
-232 32 -291 22 -59 69 -111 114 -128 52 -20 138 -13 195 15 55 27 144 117
170 171 9 19 21 32 26 30 6 -2 28 -10 48 -17 l37 -13 -29 -57 c-80 -159 -237
-249 -435 -250 -237 0 -430 154 -492 393 -21 82 -20 242 2 327 47 180 178 319
345 366 61 17 213 17 276 0z m1776 -103 l3 -118 19 35 c54 100 128 163 214
181 106 22 205 -21 243 -105 40 -88 15 -174 -61 -213 -52 -27 -99 -29 -147 -6
-50 23 -70 69 -56 130 14 59 8 73 -29 73 -37 0 -72 -35 -104 -104 -46 -102
-55 -177 -52 -444 l3 -244 28 -24 c21 -18 40 -24 73 -24 l44 0 0 -45 0 -45
-280 0 -280 0 0 43 c0 42 2 45 40 60 26 10 43 25 50 42 6 16 10 170 10 388 0
408 1 402 -71 413 -38 6 -39 7 -39 49 l0 43 63 6 c178 17 256 23 289 25 l37 1
3 -117z m4948 -265 c0 -407 6 -487 41 -524 68 -72 193 -10 235 118 15 44 18
99 21 328 4 314 3 319 -65 334 -41 10 -42 11 -42 52 l0 42 63 6 c125 11 318
26 337 26 20 0 20 -8 20 -454 0 -271 4 -465 10 -480 7 -19 21 -29 55 -38 45
-12 45 -13 45 -55 0 -40 -2 -43 -27 -43 -32 0 -234 -17 -310 -25 l-53 -6 0
112 0 112 -41 -51 c-23 -28 -59 -65 -80 -82 -133 -106 -329 -119 -416 -27 -80
84 -93 155 -93 527 0 165 -5 311 -10 331 -11 38 -41 59 -85 59 -23 0 -25 4
-25 44 l0 44 73 6 c39 4 117 10 172 15 55 4 117 9 138 10 l37 1 0 -382z m2172
-72 c3 -444 3 -455 24 -483 12 -15 35 -32 53 -37 29 -8 31 -12 31 -52 l0 -44
-260 0 -260 0 0 44 c0 42 2 45 36 56 62 21 64 33 64 432 0 262 -4 359 -13 378
-9 18 -25 28 -55 34 -41 10 -42 11 -42 52 l0 42 73 6 c39 4 117 10 172 15 55
4 117 9 137 10 l37 1 3 -454z m3927 443 c121 -27 235 -118 290 -231 34 -68 61
-177 61 -245 l0 -43 -316 0 -317 0 5 -127 c10 -236 76 -333 225 -333 103 0
198 63 273 180 l31 48 45 -15 c24 -8 44 -18 44 -22 0 -4 -16 -34 -36 -67 -89
-148 -206 -219 -385 -231 -241 -16 -433 108 -516 333 -34 93 -43 259 -19 365
55 246 239 398 481 398 50 1 110 -4 134 -10z m-14959 -63 c0 -43 0 -43 -40
-49 -48 -6 -70 -22 -70 -49 0 -11 46 -124 101 -251 124 -284 119 -274 129
-256 27 49 172 450 173 478 1 41 -26 66 -83 76 -40 7 -40 7 -40 51 l0 44 190
0 190 0 0 -43 c0 -42 -2 -45 -38 -59 -22 -8 -51 -31 -65 -50 -15 -19 -114
-251 -221 -516 -107 -265 -214 -518 -238 -563 -56 -106 -141 -199 -208 -228
-101 -43 -209 -37 -279 16 -86 66 -81 225 9 270 14 7 45 13 70 13 99 0 149
-73 118 -171 -10 -30 -12 -51 -7 -55 15 -9 59 5 90 27 39 28 112 141 154 239
l36 83 -192 406 c-106 223 -199 417 -207 431 -29 47 -85 99 -114 105 -26 6
-28 10 -28 51 l0 44 285 0 285 0 0 -44z"/>
<path d="M30260 18725 l0 -905 606 0 c495 0 626 3 710 15 365 55 599 245 686
561 19 69 22 105 22 279 1 240 -14 318 -96 485 -46 95 -61 115 -157 211 -95
94 -117 111 -211 157 -198 97 -180 95 -917 99 l-643 4 0 -906z"/>
<path d="M36304 13551 c-64 -39 -98 -128 -115 -296 -19 -195 11 -401 71 -486
44 -61 121 -76 181 -36 78 53 111 173 111 407 0 171 -16 274 -54 343 -44 80
-127 109 -194 68z"/>
<path d="M17577 13981 c-106 -22 -118 -63 -115 -376 l3 -230 120 2 c159 3 239
26 300 88 59 59 79 127 73 244 -11 182 -94 266 -276 276 -37 2 -84 0 -105 -4z"/>
<path d="M21671 13124 c-72 -19 -148 -62 -176 -99 -52 -67 -53 -171 -4 -224
63 -68 185 -51 234 33 26 44 45 139 45 223 0 90 -4 93 -99 67z"/>
<path d="M25624 13596 c-67 -30 -92 -91 -103 -248 l-6 -98 152 0 153 0 0 63
c0 83 -15 171 -37 215 -32 64 -101 93 -159 68z"/>
<path d="M38467 13600 c-38 -12 -55 -27 -77 -69 -20 -40 -40 -154 -40 -230 l0
-51 151 0 152 0 -5 108 c-6 118 -32 199 -72 225 -30 20 -76 27 -109 17z"/>
</g>
</svg>
